<?xml version="1.0" encoding="UTF-8"?>
<svg xmlns="http://www.w3.org/2000/svg" width="1534" height="505" viewBox="190.06 124.49 1533.68 504.87" role="img" aria-label="Feather logo cleaned SVG vector">
  <title>Feather logo</title>
  <rect x="190.06" y="124.49" width="1533.68" height="504.87" fill="white"/>
  <path d="M 205.31 617.00 L 258.00 613.97 L 280.00 613.39 L 285.00 612.88 L 298.00 612.60 L 310.00 611.96 L 416.00 610.73 L 424.00 610.50 L 428.00 609.91 L 437.00 609.48 L 443.00 608.71 L 448.00 608.45 L 452.00 607.81 L 458.00 607.37 L 459.00 606.98 L 477.00 604.40 L 502.00 599.29 L 520.00 594.53 L 528.00 591.82 L 530.00 591.47 L 531.00 590.88 L 533.00 590.53 L 534.00 589.94 L 539.00 588.42 L 540.00 587.78 L 542.00 587.29 L 547.00 585.18 L 548.00 584.29 L 549.10 584.00 L 548.00 583.78 L 546.00 583.96 L 525.89 590.00 L 508.99 594.00 L 483.52 598.00 L 455.12 601.00 L 444.00 601.48 L 392.00 605.01 L 358.00 606.45 L 350.00 607.09 L 331.00 607.61 L 306.00 609.07 L 271.00 610.35 L 260.00 611.13 L 254.00 611.26 L 251.89 611.00 L 257.00 610.55 L 266.20 609.00 L 271.00 608.53 L 299.00 603.77 L 310.00 602.23 L 320.00 600.50 L 322.00 599.90 L 326.00 599.44 L 334.00 597.85 L 338.00 597.44 L 346.00 595.82 L 361.00 593.45 L 363.00 592.82 L 372.00 591.41 L 397.00 586.49 L 436.00 578.36 L 453.00 574.31 L 472.00 569.45 L 492.00 563.40 L 501.00 560.32 L 521.00 552.68 L 537.00 545.61 L 553.00 537.35 L 568.00 528.48 L 581.00 519.59 L 594.00 509.50 L 598.72 505.00 L 599.40 504.00 L 599.00 503.75 L 586.00 513.22 L 579.92 517.00 L 571.00 522.15 L 555.00 530.11 L 538.00 537.29 L 528.00 541.03 L 526.00 541.50 L 522.00 543.21 L 514.00 546.04 L 502.00 549.60 L 501.00 550.15 L 488.00 554.27 L 486.00 554.62 L 485.00 555.14 L 476.00 557.54 L 465.00 561.04 L 433.00 570.10 L 419.00 573.60 L 406.99 577.00 L 374.26 585.00 L 331.64 594.00 L 307.00 598.43 L 294.65 601.00 L 279.00 603.33 L 266.00 605.55 L 259.33 607.00 L 256.00 607.41 L 255.00 607.41 L 254.55 607.00 L 258.00 606.45 L 259.00 605.88 L 262.00 605.52 L 267.00 603.89 L 274.00 602.34 L 309.00 592.40 L 319.00 589.00 L 325.00 587.38 L 348.00 579.78 L 353.00 578.39 L 376.00 570.41 L 387.69 566.00 L 401.00 561.45 L 440.00 546.43 L 479.00 529.60 L 495.00 521.77 L 511.00 513.41 L 531.00 501.41 L 547.00 490.53 L 559.00 481.47 L 575.00 467.53 L 591.42 451.00 L 598.46 443.00 L 607.39 432.00 L 614.56 422.00 L 624.49 407.00 L 626.60 403.00 L 627.33 401.00 L 627.00 400.59 L 625.64 402.00 L 621.04 409.00 L 616.00 415.93 L 610.00 423.34 L 602.23 432.00 L 589.93 444.00 L 577.10 455.00 L 564.00 465.04 L 545.00 478.03 L 537.00 483.08 L 536.00 483.44 L 529.00 488.08 L 495.90 507.00 L 482.70 514.00 L 477.00 516.64 L 465.00 523.13 L 464.00 523.39 L 455.00 528.17 L 454.00 528.42 L 432.73 539.00 L 431.00 539.56 L 424.00 543.05 L 401.00 553.31 L 388.00 558.53 L 380.30 562.00 L 340.73 577.00 L 324.00 582.53 L 314.51 586.00 L 271.91 599.00 L 265.00 600.85 L 264.26 600.00 L 275.00 596.38 L 285.00 592.46 L 297.00 587.42 L 300.00 585.85 L 304.00 584.43 L 311.15 581.00 L 318.00 578.34 L 352.00 562.22 L 385.00 545.58 L 417.00 527.62 L 448.00 508.53 L 462.00 498.88 L 466.00 496.51 L 488.00 480.50 L 497.00 473.43 L 502.00 468.96 L 510.00 462.61 L 528.00 446.32 L 542.11 432.00 L 550.37 423.00 L 561.34 410.00 L 568.35 401.00 L 578.47 387.00 L 585.60 376.00 L 592.62 364.00 L 602.62 344.00 L 609.39 328.00 L 610.96 323.00 L 613.35 317.00 L 616.97 305.00 L 617.53 304.00 L 619.98 294.00 L 620.48 293.00 L 626.44 266.00 L 626.40 263.00 L 626.00 261.92 L 625.08 265.00 L 624.50 266.00 L 621.00 280.16 L 618.00 289.36 L 610.00 309.24 L 600.00 329.17 L 594.00 339.82 L 587.00 351.06 L 577.00 365.97 L 568.07 378.00 L 556.00 392.98 L 543.02 408.00 L 530.00 421.99 L 512.76 439.00 L 493.00 457.01 L 478.00 469.51 L 472.00 475.02 L 448.00 494.14 L 439.00 500.55 L 432.00 506.04 L 422.00 513.00 L 399.00 528.06 L 381.00 539.15 L 345.00 559.22 L 336.00 563.48 L 325.68 569.00 L 318.00 572.48 L 304.98 579.00 L 280.42 590.00 L 271.00 593.78 L 270.54 593.00 L 272.00 592.55 L 273.00 591.80 L 284.00 586.61 L 290.00 583.40 L 297.00 579.21 L 300.00 576.99 L 312.00 570.42 L 335.31 556.00 L 340.00 553.41 L 346.00 549.39 L 349.00 546.93 L 359.00 540.53 L 377.00 528.33 L 383.85 523.00 L 393.00 516.50 L 411.00 502.31 L 429.00 486.35 L 445.00 471.33 L 453.34 463.00 L 468.50 447.00 L 481.57 432.00 L 489.55 422.00 L 496.50 413.00 L 512.58 390.00 L 521.34 376.00 L 529.52 362.00 L 537.40 347.00 L 545.45 330.00 L 553.28 311.00 L 559.37 294.00 L 563.36 281.00 L 567.44 266.00 L 570.45 253.00 L 573.33 237.00 L 574.79 226.00 L 575.34 224.00 L 577.39 206.00 L 578.52 192.00 L 579.65 166.00 L 580.15 142.00 L 580.00 139.27 L 579.00 136.49 L 578.42 140.00 L 577.00 162.28 L 575.00 181.46 L 572.00 200.69 L 569.00 215.19 L 564.00 235.21 L 558.00 255.83 L 553.06 271.00 L 544.10 295.00 L 536.00 313.98 L 532.48 321.00 L 529.00 328.92 L 522.58 341.00 L 521.28 344.00 L 510.11 364.00 L 497.21 385.00 L 488.01 399.00 L 483.55 405.00 L 481.09 409.00 L 465.00 430.17 L 448.03 451.00 L 441.00 458.98 L 430.00 470.64 L 421.95 479.00 L 419.00 481.53 L 404.27 496.00 L 392.27 507.00 L 379.21 518.00 L 370.00 524.73 L 361.37 532.00 L 353.00 537.61 L 346.00 543.13 L 342.00 545.20 L 340.00 545.34 L 339.00 545.64 L 338.00 546.40 L 337.00 546.51 L 336.99 546.00 L 340.00 541.88 L 353.00 531.81 L 369.00 516.69 L 383.40 502.00 L 397.44 486.00 L 410.45 470.00 L 433.50 439.00 L 439.41 430.00 L 450.45 412.00 L 465.58 383.00 L 473.48 365.00 L 476.87 355.00 L 478.64 351.00 L 481.00 342.93 L 481.53 342.00 L 482.87 336.00 L 483.64 334.00 L 483.91 332.00 L 485.47 327.00 L 485.96 324.00 L 486.47 323.00 L 486.94 320.00 L 487.45 319.00 L 488.97 310.00 L 489.62 308.00 L 490.00 304.66 L 490.59 303.00 L 490.94 299.00 L 491.58 297.00 L 492.00 292.24 L 492.46 291.00 L 493.00 285.24 L 493.51 283.00 L 494.00 276.13 L 494.51 274.00 L 494.86 266.00 L 495.55 261.00 L 496.52 218.00 L 496.17 207.00 L 496.00 205.68 L 495.00 204.28 L 494.00 226.93 L 493.51 230.00 L 493.09 239.00 L 492.55 242.00 L 492.12 249.00 L 491.49 252.00 L 491.07 257.00 L 490.52 259.00 L 490.07 264.00 L 489.44 266.00 L 489.17 269.00 L 488.53 271.00 L 487.13 280.00 L 486.41 282.00 L 486.08 285.00 L 485.38 287.00 L 485.00 289.81 L 484.47 291.00 L 483.00 298.84 L 482.49 300.00 L 482.00 302.98 L 481.49 304.00 L 481.00 306.99 L 480.49 308.00 L 479.09 314.00 L 478.54 315.00 L 478.00 317.62 L 476.43 322.00 L 474.00 330.79 L 470.00 342.24 L 469.49 343.00 L 469.04 345.00 L 466.49 351.00 L 464.00 358.22 L 460.39 366.00 L 457.00 374.51 L 451.42 386.00 L 449.00 391.73 L 440.00 409.31 L 433.00 422.18 L 422.09 440.00 L 416.21 449.00 L 400.21 471.00 L 381.00 495.25 L 370.49 507.00 L 367.00 511.38 L 347.47 531.00 L 340.00 536.76 L 326.62 549.00 L 321.00 553.03 L 318.00 554.78 L 313.94 558.00 L 309.00 561.24 L 304.00 563.82 L 302.78 565.00 L 303.00 565.18 L 306.00 564.24 L 307.00 564.72 L 307.00 565.15 L 306.00 565.63 L 305.00 565.63 L 298.00 570.01 L 292.00 572.58 L 289.00 574.40 L 282.00 577.72 L 281.45 577.00 L 288.00 572.75 L 291.00 571.39 L 293.00 570.11 L 298.05 566.00 L 305.00 560.97 L 309.78 556.00 L 320.00 546.87 L 337.00 529.88 L 348.50 517.00 L 357.62 506.00 L 362.00 499.92 L 367.57 493.00 L 381.33 473.00 L 390.46 458.00 L 397.58 445.00 L 402.51 435.00 L 407.50 424.00 L 411.55 414.00 L 418.25 394.00 L 422.45 378.00 L 422.83 375.00 L 424.50 368.00 L 426.52 355.00 L 427.59 345.00 L 427.90 336.00 L 428.39 333.00 L 428.62 317.00 L 428.48 302.00 L 427.94 296.00 L 427.52 281.00 L 426.00 267.95 L 425.43 271.00 L 425.28 277.00 L 425.53 302.00 L 425.01 316.00 L 424.60 318.00 L 424.00 326.08 L 422.00 340.90 L 419.00 357.89 L 415.00 375.10 L 408.00 399.58 L 399.09 424.00 L 392.13 440.00 L 385.15 454.00 L 374.18 473.00 L 364.19 488.00 L 353.00 503.29 L 346.15 512.00 L 331.00 529.31 L 315.60 545.00 L 304.47 555.00 L 293.00 564.09 L 282.14 572.00 L 275.00 576.63 L 274.53 576.00 L 287.00 564.92 L 302.40 550.00 L 316.45 534.00 L 326.59 521.00 L 329.89 516.00 L 334.41 510.00 L 337.94 504.00 L 344.61 494.00 L 345.99 491.00 L 352.38 480.00 L 357.48 470.00 L 364.63 454.00 L 369.45 441.00 L 373.68 427.00 L 376.58 414.00 L 378.40 403.00 L 379.45 394.00 L 380.20 381.00 L 380.17 367.00 L 379.40 349.00 L 378.15 335.00 L 377.13 329.00 L 376.34 328.00 L 376.00 326.78 L 375.88 330.00 L 376.43 334.00 L 377.14 358.00 L 376.36 376.00 L 375.28 386.00 L 374.08 394.00 L 373.51 396.00 L 373.28 399.00 L 369.14 419.00 L 366.47 428.00 L 366.15 430.00 L 363.50 438.00 L 363.14 440.00 L 358.18 454.00 L 355.44 460.00 L 353.20 466.00 L 348.09 477.00 L 343.00 486.87 L 336.01 499.00 L 327.17 513.00 L 320.08 523.00 L 314.08 531.00 L 304.09 543.00 L 287.25 560.00 L 267.00 577.98 L 266.83 577.00 L 278.38 565.00 L 288.52 553.00 L 294.60 545.00 L 303.39 532.00 L 304.94 529.00 L 310.66 520.00 L 313.00 515.02 L 319.54 503.00 L 322.00 496.59 L 325.52 489.00 L 329.44 478.00 L 330.00 475.57 L 332.63 468.00 L 333.00 466.00 L 333.58 465.00 L 334.00 462.21 L 335.48 457.00 L 336.00 453.15 L 336.52 452.00 L 337.00 447.70 L 337.53 446.00 L 338.65 436.00 L 338.91 416.00 L 338.64 403.00 L 337.93 398.00 L 337.35 389.00 L 336.80 387.00 L 336.61 383.00 L 335.00 375.65 L 334.59 377.00 L 334.58 381.00 L 335.08 384.00 L 335.47 393.00 L 336.24 401.00 L 336.02 418.00 L 335.00 430.85 L 332.10 450.00 L 331.45 452.00 L 331.13 455.00 L 330.43 457.00 L 330.19 459.00 L 329.42 461.00 L 329.00 463.80 L 328.43 465.00 L 327.04 471.00 L 325.47 475.00 L 324.06 480.00 L 323.46 481.00 L 323.01 483.00 L 322.41 484.00 L 321.00 488.57 L 318.07 496.00 L 310.13 513.00 L 307.67 517.00 L 303.00 525.93 L 296.12 537.00 L 291.15 544.00 L 281.00 557.07 L 272.00 567.42 L 265.00 574.39 L 260.17 579.00 L 252.05 586.00 L 243.14 593.00 L 232.00 601.05 L 222.16 607.00 L 214.59 611.00 L 208.03 614.00 L 203.00 615.73 L 202.06 617.00 L 203.00 617.36 Z M 1442.79 556.00 L 1442.48 555.00 L 1442.00 554.65 L 1434.45 554.00 L 1432.00 553.28 L 1429.48 552.00 L 1428.00 550.68 L 1426.75 549.00 L 1425.81 547.00 L 1424.97 544.00 L 1424.69 540.00 L 1424.52 464.00 L 1423.60 457.00 L 1422.92 455.00 L 1422.44 452.00 L 1420.41 447.00 L 1417.52 442.00 L 1414.47 438.00 L 1412.00 435.49 L 1408.00 432.38 L 1405.00 430.55 L 1401.00 428.64 L 1395.00 426.70 L 1389.00 425.54 L 1382.00 425.14 L 1374.00 425.59 L 1368.00 426.71 L 1362.00 428.59 L 1357.00 430.78 L 1352.00 433.63 L 1348.00 436.24 L 1343.00 440.36 L 1338.36 445.00 L 1334.00 450.54 L 1333.00 451.29 L 1332.88 335.00 L 1332.00 334.06 L 1331.00 334.13 L 1326.51 336.00 L 1317.00 339.14 L 1311.00 340.50 L 1310.00 341.05 L 1307.00 341.46 L 1305.00 342.23 L 1303.00 342.47 L 1301.00 343.22 L 1298.00 343.55 L 1296.00 344.22 L 1295.01 345.00 L 1296.00 345.80 L 1302.00 345.98 L 1306.00 346.92 L 1308.20 348.00 L 1311.04 351.00 L 1312.02 353.00 L 1313.30 358.00 L 1313.46 537.00 L 1313.00 544.75 L 1312.07 548.00 L 1310.00 551.14 L 1307.00 553.03 L 1303.80 554.00 L 1296.00 554.51 L 1295.24 555.00 L 1295.03 556.00 L 1296.00 556.83 L 1350.00 556.80 L 1351.00 556.00 L 1350.69 555.00 L 1350.00 554.56 L 1343.00 554.07 L 1340.00 553.20 L 1338.00 552.26 L 1334.90 549.00 L 1334.00 546.86 L 1333.36 544.00 L 1333.00 540.98 L 1332.92 533.00 L 1332.92 458.00 L 1335.00 454.13 L 1339.80 448.00 L 1345.00 442.96 L 1351.00 438.95 L 1357.17 436.00 L 1363.78 434.00 L 1373.00 433.41 L 1379.00 433.65 L 1384.80 435.00 L 1391.00 437.95 L 1395.00 440.99 L 1397.03 443.00 L 1399.00 445.64 L 1402.01 451.00 L 1404.00 457.33 L 1405.08 463.00 L 1405.39 471.00 L 1405.45 537.00 L 1405.00 544.66 L 1404.00 547.84 L 1403.00 549.61 L 1400.81 552.00 L 1399.00 553.09 L 1395.92 554.00 L 1388.00 554.68 L 1387.60 555.00 L 1387.33 556.00 L 1388.00 556.71 L 1389.00 556.82 L 1441.00 556.79 L 1442.00 556.77 Z M 780.81 556.00 L 780.51 555.00 L 780.00 554.63 L 771.00 554.05 L 767.00 553.09 L 764.17 552.00 L 761.00 550.06 L 759.00 547.96 L 757.82 546.00 L 756.74 543.00 L 755.91 539.00 L 755.61 533.00 L 755.59 457.00 L 756.00 456.56 L 808.00 456.57 L 813.60 457.00 L 818.00 457.86 L 821.62 459.00 L 825.50 461.00 L 828.00 462.93 L 832.04 468.00 L 833.02 470.00 L 835.07 477.00 L 835.75 486.00 L 836.16 488.00 L 837.00 488.66 L 837.83 488.00 L 837.93 486.00 L 837.86 422.00 L 837.00 420.76 L 835.77 422.00 L 835.08 431.00 L 834.04 435.00 L 832.00 439.76 L 830.00 442.59 L 827.74 445.00 L 825.00 447.07 L 821.00 449.03 L 817.94 450.00 L 815.00 450.37 L 812.90 451.00 L 808.00 451.40 L 756.00 451.44 L 755.62 451.00 L 755.58 450.00 L 755.64 362.00 L 755.91 358.00 L 756.77 355.00 L 757.88 353.00 L 760.00 350.73 L 761.00 350.12 L 765.00 349.93 L 809.00 349.89 L 822.39 351.00 L 824.00 351.59 L 827.13 352.00 L 833.94 354.00 L 840.47 357.00 L 845.00 359.93 L 851.10 366.00 L 853.19 369.00 L 856.15 375.00 L 858.00 381.25 L 859.24 389.00 L 860.00 390.49 L 861.00 390.28 L 861.59 389.00 L 858.63 347.00 L 858.00 345.71 L 857.00 345.34 L 711.00 345.38 L 710.00 345.40 L 708.96 346.00 L 708.83 347.00 L 710.00 347.75 L 715.00 347.95 L 717.00 348.48 L 721.00 348.89 L 724.00 349.90 L 726.11 351.00 L 728.51 353.00 L 730.17 355.00 L 732.00 359.37 L 732.55 362.00 L 733.09 366.00 L 733.19 372.00 L 733.22 502.00 L 733.10 535.00 L 732.13 542.00 L 731.00 545.49 L 729.00 548.68 L 725.00 552.00 L 722.00 553.16 L 718.00 554.06 L 710.00 554.51 L 709.21 555.00 L 708.88 556.00 L 710.00 556.83 L 711.00 556.84 L 779.00 556.79 L 780.00 556.75 Z M 1245.75 559.00 L 1250.00 558.50 L 1255.00 557.23 L 1259.00 555.59 L 1263.00 553.22 L 1266.00 550.91 L 1269.93 547.00 L 1272.43 544.00 L 1274.40 541.00 L 1274.73 540.00 L 1274.00 538.78 L 1269.00 544.03 L 1266.00 546.17 L 1262.56 548.00 L 1259.00 549.24 L 1253.00 550.03 L 1246.00 549.05 L 1242.00 547.31 L 1239.00 544.78 L 1236.91 542.00 L 1235.88 540.00 L 1234.76 537.00 L 1233.71 532.00 L 1233.13 520.00 L 1233.09 432.00 L 1234.00 431.56 L 1269.00 431.61 L 1270.00 431.43 L 1270.45 431.00 L 1270.74 429.00 L 1270.59 428.00 L 1270.00 427.33 L 1269.00 427.19 L 1234.00 427.23 L 1233.54 427.00 L 1233.20 426.00 L 1233.13 408.00 L 1233.59 379.00 L 1233.00 377.83 L 1232.00 378.23 L 1231.40 379.00 L 1230.01 382.00 L 1228.00 384.50 L 1223.00 389.19 L 1218.00 392.05 L 1215.00 393.33 L 1210.00 394.80 L 1208.26 396.00 L 1209.00 397.24 L 1214.00 397.72 L 1217.93 399.00 L 1220.61 401.00 L 1222.27 403.00 L 1223.00 404.51 L 1223.29 406.00 L 1223.23 409.00 L 1222.00 412.73 L 1220.00 416.15 L 1214.30 422.00 L 1209.82 425.00 L 1205.39 427.00 L 1201.79 428.00 L 1196.96 429.00 L 1192.00 429.51 L 1190.88 430.00 L 1190.46 431.00 L 1191.00 431.48 L 1192.00 431.67 L 1213.00 431.62 L 1214.03 432.00 L 1214.05 527.00 L 1214.34 533.00 L 1215.41 539.00 L 1216.61 543.00 L 1218.58 547.00 L 1221.58 551.00 L 1226.00 554.73 L 1229.00 556.40 L 1235.00 558.43 L 1240.00 559.16 Z M 954.36 559.00 L 958.00 558.77 L 964.00 557.72 L 971.00 555.64 L 976.00 553.52 L 980.00 551.43 L 986.00 547.51 L 991.75 542.00 L 996.70 536.00 L 1001.51 527.00 L 1002.96 523.00 L 1002.68 522.00 L 1002.00 521.60 L 1001.60 522.00 L 999.02 527.00 L 996.13 531.00 L 991.29 536.00 L 988.94 538.00 L 984.00 541.16 L 980.00 543.25 L 972.00 546.08 L 969.00 546.46 L 967.00 547.11 L 964.00 547.38 L 953.00 547.36 L 945.02 546.00 L 936.14 543.00 L 929.10 539.00 L 922.60 534.00 L 917.83 529.00 L 912.88 522.00 L 911.00 518.76 L 908.79 514.00 L 906.95 509.00 L 904.00 497.09 L 903.51 490.00 L 903.64 478.00 L 904.00 477.67 L 1000.00 477.44 L 1001.00 476.96 L 1001.67 476.00 L 1001.50 471.00 L 999.67 461.00 L 997.53 455.00 L 995.54 451.00 L 990.75 444.00 L 987.00 439.83 L 982.00 435.51 L 979.00 433.49 L 973.00 430.31 L 969.00 428.65 L 962.00 426.69 L 952.00 425.33 L 941.00 425.54 L 934.00 426.61 L 927.00 428.49 L 920.00 431.52 L 914.00 434.78 L 910.00 437.47 L 905.00 441.68 L 901.73 445.00 L 897.63 450.00 L 893.48 456.00 L 890.73 461.00 L 886.73 471.00 L 884.56 480.00 L 883.60 488.00 L 883.58 498.00 L 884.50 506.00 L 885.51 511.00 L 887.66 518.00 L 889.70 523.00 L 893.42 530.00 L 897.59 536.00 L 903.18 542.00 L 907.00 545.61 L 911.00 548.64 L 916.00 551.67 L 921.00 554.19 L 927.00 556.44 L 936.00 558.46 L 943.00 559.25 L 952.00 559.28 Z M 1082.65 559.00 L 1088.00 558.47 L 1096.00 556.54 L 1101.00 554.51 L 1107.00 551.41 L 1111.00 548.74 L 1116.00 544.72 L 1123.49 537.00 L 1125.00 534.71 L 1125.27 535.00 L 1126.39 544.00 L 1127.34 547.00 L 1129.30 551.00 L 1131.00 553.07 L 1134.00 555.61 L 1138.00 557.56 L 1141.00 558.30 L 1144.00 558.76 L 1149.00 558.72 L 1154.00 557.69 L 1157.00 556.56 L 1161.00 554.48 L 1165.00 551.53 L 1170.39 546.00 L 1170.66 545.00 L 1170.00 544.27 L 1169.00 544.27 L 1166.35 547.00 L 1163.00 549.13 L 1160.00 550.35 L 1156.00 551.04 L 1152.00 550.35 L 1150.00 549.36 L 1148.00 547.67 L 1146.00 544.44 L 1144.93 541.00 L 1144.42 536.00 L 1144.46 464.00 L 1143.60 456.00 L 1142.46 451.00 L 1141.46 448.00 L 1139.43 444.00 L 1135.69 439.00 L 1132.00 435.33 L 1128.00 432.46 L 1124.00 430.29 L 1120.00 428.62 L 1113.00 426.64 L 1107.00 425.63 L 1102.00 425.29 L 1090.00 425.55 L 1080.00 427.25 L 1072.00 429.67 L 1062.00 434.56 L 1059.00 436.50 L 1055.00 439.77 L 1051.72 443.00 L 1049.27 446.00 L 1047.44 449.00 L 1046.61 451.00 L 1045.82 455.00 L 1045.79 457.00 L 1046.84 461.00 L 1049.15 464.00 L 1051.00 465.44 L 1054.00 466.57 L 1059.00 466.57 L 1062.00 465.43 L 1065.52 462.00 L 1066.39 460.00 L 1066.65 455.00 L 1065.69 451.00 L 1065.75 445.00 L 1067.00 441.33 L 1069.00 437.84 L 1072.00 434.67 L 1077.00 431.75 L 1082.00 429.93 L 1087.00 428.88 L 1090.00 428.62 L 1097.00 428.63 L 1103.00 429.70 L 1107.00 430.83 L 1111.00 432.75 L 1115.49 436.00 L 1119.00 439.72 L 1121.18 443.00 L 1123.00 447.06 L 1125.00 456.17 L 1125.29 460.00 L 1125.33 479.00 L 1125.00 480.18 L 1122.00 481.02 L 1106.00 483.43 L 1104.00 484.08 L 1100.00 484.57 L 1094.24 486.00 L 1091.00 486.43 L 1085.75 488.00 L 1083.00 488.44 L 1078.70 490.00 L 1076.00 490.58 L 1066.00 494.37 L 1056.00 499.43 L 1053.00 501.50 L 1049.02 505.00 L 1044.63 510.00 L 1041.80 515.00 L 1040.64 518.00 L 1039.49 524.00 L 1039.43 526.00 L 1039.60 531.00 L 1040.68 537.00 L 1042.36 541.00 L 1044.69 545.00 L 1049.00 549.88 L 1052.00 552.51 L 1055.00 554.34 L 1063.00 557.61 L 1068.00 558.74 L 1074.00 559.42 Z M 1540.67 559.00 L 1548.00 558.29 L 1556.00 556.33 L 1565.00 552.46 L 1571.00 548.71 L 1577.00 543.49 L 1582.61 537.00 L 1584.55 534.00 L 1584.82 533.00 L 1588.58 526.00 L 1589.65 523.00 L 1589.49 522.00 L 1589.00 521.52 L 1588.00 522.33 L 1587.42 523.00 L 1587.17 524.00 L 1585.03 528.00 L 1584.00 529.39 L 1579.00 534.79 L 1575.46 538.00 L 1569.00 542.14 L 1561.89 545.00 L 1558.00 546.11 L 1551.00 547.30 L 1540.00 547.37 L 1532.00 546.08 L 1523.00 543.04 L 1519.00 541.13 L 1514.00 538.09 L 1507.00 532.01 L 1502.00 526.07 L 1498.00 519.74 L 1494.00 510.61 L 1492.00 504.15 L 1491.00 499.57 L 1489.99 491.00 L 1489.93 484.00 L 1490.25 478.00 L 1491.00 477.68 L 1586.00 477.49 L 1587.00 477.35 L 1587.75 476.00 L 1587.54 469.00 L 1586.48 463.00 L 1585.96 462.00 L 1585.60 460.00 L 1582.44 452.00 L 1578.62 446.00 L 1575.44 442.00 L 1572.00 438.53 L 1567.00 434.46 L 1558.00 429.70 L 1552.00 427.54 L 1548.00 426.57 L 1540.00 425.46 L 1532.00 425.30 L 1527.00 425.63 L 1520.00 426.72 L 1513.00 428.62 L 1508.00 430.65 L 1501.00 434.39 L 1498.00 436.34 L 1493.00 440.27 L 1488.20 445.00 L 1483.77 450.00 L 1481.62 453.00 L 1476.51 462.00 L 1473.71 469.00 L 1471.43 477.00 L 1471.13 480.00 L 1470.53 482.00 L 1469.95 490.00 L 1469.88 494.00 L 1470.38 502.00 L 1471.54 509.00 L 1473.48 516.00 L 1475.38 521.00 L 1479.40 529.00 L 1483.41 535.00 L 1486.65 539.00 L 1490.00 542.49 L 1495.00 546.68 L 1502.00 551.40 L 1506.00 553.44 L 1511.00 555.43 L 1517.00 557.30 L 1524.00 558.73 L 1531.00 559.37 Z M 1676.80 556.00 L 1676.45 555.00 L 1676.00 554.69 L 1669.00 554.23 L 1665.00 553.27 L 1663.00 552.29 L 1659.81 549.00 L 1658.00 543.96 L 1657.62 540.00 L 1657.52 531.00 L 1657.56 464.00 L 1657.89 462.00 L 1660.00 456.63 L 1662.00 452.73 L 1666.96 446.00 L 1670.10 443.00 L 1672.81 441.00 L 1678.00 438.69 L 1682.00 437.87 L 1685.00 437.78 L 1690.00 438.77 L 1693.00 439.89 L 1696.00 441.69 L 1698.00 443.42 L 1700.00 445.81 L 1701.00 447.65 L 1701.96 450.00 L 1702.04 451.00 L 1703.00 451.96 L 1704.00 451.47 L 1709.51 444.00 L 1711.34 440.00 L 1711.74 436.00 L 1711.60 434.00 L 1711.17 433.00 L 1709.20 430.00 L 1707.00 428.14 L 1704.00 426.51 L 1701.00 425.64 L 1697.00 425.21 L 1692.00 425.34 L 1686.00 426.62 L 1683.00 427.72 L 1676.00 431.69 L 1669.86 437.00 L 1665.56 442.00 L 1662.68 446.00 L 1658.69 453.00 L 1658.00 454.87 L 1657.52 454.00 L 1657.45 427.00 L 1657.00 425.97 L 1656.00 425.44 L 1638.76 431.00 L 1626.33 434.00 L 1621.00 434.91 L 1620.00 435.39 L 1619.57 436.00 L 1620.00 436.70 L 1621.00 436.96 L 1626.14 437.00 L 1630.00 437.97 L 1632.00 438.81 L 1633.77 440.00 L 1636.28 443.00 L 1637.22 445.00 L 1638.03 448.00 L 1638.34 453.00 L 1638.34 540.00 L 1638.00 543.23 L 1637.13 547.00 L 1636.00 549.20 L 1633.43 552.00 L 1631.00 553.26 L 1628.00 554.05 L 1621.00 554.47 L 1619.93 555.00 L 1619.68 556.00 L 1621.00 556.81 L 1675.00 556.82 L 1676.00 556.73 Z M 973.00 474.14 L 966.00 474.72 L 905.00 474.82 L 904.09 474.00 L 904.81 469.00 L 905.80 465.00 L 906.87 461.00 L 909.00 455.25 L 910.95 451.00 L 913.98 446.00 L 917.87 441.00 L 921.00 437.98 L 925.00 434.84 L 930.36 432.00 L 936.00 429.94 L 940.01 429.00 L 946.00 428.55 L 950.00 428.73 L 956.00 429.88 L 959.29 431.00 L 963.54 433.00 L 968.00 435.92 L 970.00 437.72 L 972.09 440.00 L 975.01 444.00 L 977.14 448.00 L 979.16 453.00 L 980.25 458.00 L 980.29 466.00 L 980.00 467.72 L 978.23 471.00 L 975.85 473.00 Z M 1559.00 474.13 L 1553.00 474.66 L 1496.00 474.69 L 1491.00 474.68 L 1490.58 474.00 L 1492.00 465.72 L 1494.00 459.05 L 1496.00 454.08 L 1499.00 448.14 L 1502.00 443.85 L 1505.00 440.41 L 1510.00 435.86 L 1513.00 433.91 L 1517.00 431.91 L 1522.31 430.00 L 1526.57 429.00 L 1534.00 428.56 L 1538.84 429.00 L 1543.00 429.92 L 1550.00 432.91 L 1553.23 435.00 L 1557.00 438.60 L 1560.00 442.22 L 1562.00 445.51 L 1565.00 452.07 L 1566.00 456.34 L 1566.48 463.00 L 1566.24 467.00 L 1566.10 468.00 L 1565.10 470.00 L 1564.00 471.25 L 1562.00 473.01 Z M 1092.00 550.03 L 1083.54 550.00 L 1079.00 549.14 L 1076.00 548.09 L 1069.79 545.00 L 1066.31 542.00 L 1064.00 539.36 L 1062.00 535.76 L 1060.94 533.00 L 1059.61 526.00 L 1059.65 520.00 L 1060.00 517.22 L 1060.81 514.00 L 1062.93 509.00 L 1066.00 504.70 L 1071.90 499.00 L 1077.00 495.92 L 1083.09 493.00 L 1091.34 490.00 L 1103.00 486.99 L 1107.61 486.00 L 1112.00 485.51 L 1114.00 484.91 L 1118.00 484.46 L 1119.36 484.00 L 1125.00 483.36 L 1125.35 484.00 L 1125.35 523.00 L 1125.30 529.00 L 1125.00 529.81 L 1121.12 535.00 L 1117.29 539.00 L 1110.00 544.26 L 1106.00 546.20 L 1101.00 548.12 L 1097.00 549.20 Z" fill="#000000" fill-rule="nonzero"/>
</svg>
